<mxfile host="Electron" agent="Mozilla/5.0 (Windows NT 10.0; Win64; x64) AppleWebKit/537.36 (KHTML, like Gecko) draw.io/24.7.8 Chrome/128.0.6613.36 Electron/32.0.1 Safari/537.36" version="24.7.8">
  <diagram name="Página-1" id="alc6BBIxavD80iaEc-hy">
    <mxGraphModel dx="1036" dy="613" grid="1" gridSize="10" guides="1" tooltips="1" connect="1" arrows="1" fold="1" page="1" pageScale="1" pageWidth="827" pageHeight="1169" math="0" shadow="0">
      <root>
        <mxCell id="0" />
        <mxCell id="1" parent="0" />
        <mxCell id="7Jm09QW0MUr5yYafjW6N-7" style="edgeStyle=orthogonalEdgeStyle;rounded=0;orthogonalLoop=1;jettySize=auto;html=1;entryX=0;entryY=0.5;entryDx=0;entryDy=0;" parent="1" source="7Jm09QW0MUr5yYafjW6N-1" target="7Jm09QW0MUr5yYafjW6N-4" edge="1">
          <mxGeometry relative="1" as="geometry" />
        </mxCell>
        <mxCell id="7Jm09QW0MUr5yYafjW6N-1" value="" style="ellipse;whiteSpace=wrap;html=1;aspect=fixed;" parent="1" vertex="1">
          <mxGeometry x="20" y="170" width="40" height="40" as="geometry" />
        </mxCell>
        <mxCell id="7Jm09QW0MUr5yYafjW6N-2" value="" style="ellipse;whiteSpace=wrap;html=1;aspect=fixed;fillColor=#33001A;" parent="1" vertex="1">
          <mxGeometry x="680" y="545" width="40" height="40" as="geometry" />
        </mxCell>
        <mxCell id="7Jm09QW0MUr5yYafjW6N-3" value="&lt;font style=&quot;font-size: 30px;&quot;&gt;DIAGRAMA ACTIVIDAD RELLENADO DE ARRAY&amp;nbsp;&lt;/font&gt;" style="text;html=1;align=center;verticalAlign=middle;whiteSpace=wrap;rounded=0;" parent="1" vertex="1">
          <mxGeometry x="30" width="750" height="70" as="geometry" />
        </mxCell>
        <mxCell id="7Jm09QW0MUr5yYafjW6N-17" style="edgeStyle=orthogonalEdgeStyle;rounded=0;orthogonalLoop=1;jettySize=auto;html=1;entryX=0;entryY=0.5;entryDx=0;entryDy=0;" parent="1" source="7Jm09QW0MUr5yYafjW6N-4" target="7Jm09QW0MUr5yYafjW6N-18" edge="1">
          <mxGeometry relative="1" as="geometry" />
        </mxCell>
        <mxCell id="7Jm09QW0MUr5yYafjW6N-4" value="GENERAR&lt;div&gt;ALEATORIO&lt;/div&gt;" style="ellipse;whiteSpace=wrap;html=1;fillColor=#0050ef;strokeColor=#001DBC;fontColor=#ffffff;" parent="1" vertex="1">
          <mxGeometry x="190" y="150" width="120" height="80" as="geometry" />
        </mxCell>
        <mxCell id="7Jm09QW0MUr5yYafjW6N-25" style="edgeStyle=orthogonalEdgeStyle;rounded=0;orthogonalLoop=1;jettySize=auto;html=1;entryX=0.5;entryY=0;entryDx=0;entryDy=0;" parent="1" source="7Jm09QW0MUr5yYafjW6N-5" target="7Jm09QW0MUr5yYafjW6N-8" edge="1">
          <mxGeometry relative="1" as="geometry" />
        </mxCell>
        <mxCell id="7Jm09QW0MUr5yYafjW6N-5" value="ASIGNO A&amp;nbsp;&lt;div&gt;POSCIÓN&lt;/div&gt;&lt;div&gt;DE ARRAY&lt;/div&gt;" style="ellipse;whiteSpace=wrap;html=1;" parent="1" vertex="1">
          <mxGeometry x="640" y="260" width="120" height="80" as="geometry" />
        </mxCell>
        <mxCell id="7Jm09QW0MUr5yYafjW6N-9" value="SÍ" style="edgeStyle=orthogonalEdgeStyle;rounded=0;orthogonalLoop=1;jettySize=auto;html=1;entryX=0.5;entryY=0;entryDx=0;entryDy=0;" parent="1" source="7Jm09QW0MUr5yYafjW6N-8" target="7Jm09QW0MUr5yYafjW6N-2" edge="1">
          <mxGeometry relative="1" as="geometry" />
        </mxCell>
        <mxCell id="7Jm09QW0MUr5yYafjW6N-26" value="NO" style="edgeStyle=orthogonalEdgeStyle;rounded=0;orthogonalLoop=1;jettySize=auto;html=1;entryX=0.5;entryY=1;entryDx=0;entryDy=0;" parent="1" source="7Jm09QW0MUr5yYafjW6N-8" target="7Jm09QW0MUr5yYafjW6N-4" edge="1">
          <mxGeometry relative="1" as="geometry" />
        </mxCell>
        <mxCell id="7Jm09QW0MUr5yYafjW6N-8" value="ARRAY&lt;div&gt;COMPLETO&lt;/div&gt;" style="rhombus;whiteSpace=wrap;html=1;" parent="1" vertex="1">
          <mxGeometry x="655" y="380" width="90" height="80" as="geometry" />
        </mxCell>
        <mxCell id="7Jm09QW0MUr5yYafjW6N-22" value="SÍ" style="edgeStyle=orthogonalEdgeStyle;rounded=0;orthogonalLoop=1;jettySize=auto;html=1;entryX=0.5;entryY=0;entryDx=0;entryDy=0;exitX=1;exitY=0.5;exitDx=0;exitDy=0;" parent="1" source="7Jm09QW0MUr5yYafjW6N-12" target="7Jm09QW0MUr5yYafjW6N-5" edge="1">
          <mxGeometry relative="1" as="geometry" />
        </mxCell>
        <mxCell id="7Jm09QW0MUr5yYafjW6N-23" value="NO" style="edgeStyle=orthogonalEdgeStyle;rounded=0;orthogonalLoop=1;jettySize=auto;html=1;entryX=0.5;entryY=0;entryDx=0;entryDy=0;exitX=0.5;exitY=0;exitDx=0;exitDy=0;" parent="1" source="7Jm09QW0MUr5yYafjW6N-12" target="7Jm09QW0MUr5yYafjW6N-4" edge="1">
          <mxGeometry relative="1" as="geometry" />
        </mxCell>
        <mxCell id="7Jm09QW0MUr5yYafjW6N-12" value="¿ES&amp;nbsp;&lt;div&gt;PRIMO?&lt;/div&gt;" style="rhombus;whiteSpace=wrap;html=1;fillColor=#0050ef;fontColor=#ffffff;strokeColor=#001DBC;" parent="1" vertex="1">
          <mxGeometry x="560" y="150" width="80" height="80" as="geometry" />
        </mxCell>
        <mxCell id="7Jm09QW0MUr5yYafjW6N-21" value="NO" style="edgeStyle=orthogonalEdgeStyle;rounded=0;orthogonalLoop=1;jettySize=auto;html=1;entryX=0;entryY=0.5;entryDx=0;entryDy=0;" parent="1" source="7Jm09QW0MUr5yYafjW6N-18" target="7Jm09QW0MUr5yYafjW6N-12" edge="1">
          <mxGeometry relative="1" as="geometry" />
        </mxCell>
        <mxCell id="7Jm09QW0MUr5yYafjW6N-24" value="SÍ" style="edgeStyle=orthogonalEdgeStyle;rounded=0;orthogonalLoop=1;jettySize=auto;html=1;entryX=0.5;entryY=1;entryDx=0;entryDy=0;exitX=0.5;exitY=1;exitDx=0;exitDy=0;" parent="1" source="7Jm09QW0MUr5yYafjW6N-18" target="7Jm09QW0MUr5yYafjW6N-4" edge="1">
          <mxGeometry relative="1" as="geometry" />
        </mxCell>
        <mxCell id="7Jm09QW0MUr5yYafjW6N-18" value="¿ESTÁ&lt;div&gt;REPETIDO?&lt;/div&gt;" style="rhombus;whiteSpace=wrap;html=1;fillColor=#0050ef;fontColor=#ffffff;strokeColor=#001DBC;" parent="1" vertex="1">
          <mxGeometry x="390" y="145" width="90" height="90" as="geometry" />
        </mxCell>
      </root>
    </mxGraphModel>
  </diagram>
</mxfile>
